#!OML:ASF X:\für Bonn\!DataBase\2005_08_12_Daniel\c3d\Daniel.ASF
:FULLY-SPECIFIED
:DEGREES
31
root -3.00127 15.6665 -2.937 308.694 -81.5544 -322.559
lowerback 29.3052 -2.6593 -2.24466
upperback 1.74162 -4.93233 -3.08509
thorax -13.6255 -2.29117 -0.185705
lowerneck 4.11986 1.94204 -3.33738
upperneck 2.66646 2.40054 0.523853
head 0.0899951 1.1495 0.678747
rclavicle 2.43511e-015 1.13307e-014
rhumerus 60.9961 -7.4506 -110.826
rradius 7.97494
rwrist 79.167
rhand -16.6393 11.9822
rfingers 7.12502
rthumb 9.58339 -17.7799
lclavicle 2.43511e-015 1.13307e-014
lhumerus 59.8014 1.44913 93.7219
lradius 11.065
lwrist -64.1187
lhand -15.3813 2.0874
lfingers 7.12502
lthumb 10.797 31.7899
rfemur -13.5073 -14.2225 4.46182
rtibia 62.457
rfoot -29.0909 8.7126
rtoes -12.6953
lfemur -20.2065 -3.20373 -20.4522
ltibia 60.9603
lfoot -28.7491 -6.18421
ltoes -1.43151
32
root -2.9846 15.5321 -2.93348 308.128 -81.5767 -322.242
lowerback 29.9514 -2.64274 -2.21572
upperback 1.8189 -4.93636 -3.09561
thorax -13.8323 -2.29198 -0.183807
lowerneck 4.06842 1.94642 -3.33653
upperneck 2.49796 2.41063 0.504776
head 0.0470668 1.15768 0.672209
rclavicle 7.26806e-015 -7.55382e-015
rhumerus 61.5659 -7.19893 -110.735
rradius 7.83535
rwrist 78.9503
rhand -16.7442 12.0149
rfingers 7.12502
rthumb 9.48215 -17.7518
lclavicle 7.26806e-015 -7.55382e-015
lhumerus 60.1883 1.23947 93.4423
lradius 11.0481
lwrist -63.7884
lhand -15.8416 1.96556
lfingers 7.12502
lthumb 10.353 31.6907
rfemur -14.7455 -15.0274 3.9675
rtibia 64.9343
rfoot -28.8721 9.38552
rtoes -12.7926
lfemur -21.1919 -2.6373 -20.3338
ltibia 62.8997
lfoot -29.0503 -6.67049
ltoes -1.4736
33
root -2.96796 15.3902 -2.93072 307.626 -81.6025 -321.993
lowerback 30.5947 -2.63097 -2.18273
upperback 1.89639 -4.94503 -3.1059
thorax -14.0344 -2.29532 -0.182542
lowerneck 4.04317 1.95219 -3.34298
upperneck 2.3102 2.42097 0.493
head -0.00623312 1.16607 0.668841
rclavicle -4.61429e-014 -1.39149e-015
rhumerus 62.1905 -6.92767 -110.66
rradius 7.60556
rwrist 78.7071
rhand -16.8648 12.0127
rfingers 7.12502
rthumb 9.36578 -17.7593
lclavicle -4.61429e-014 -1.39149e-015
lhumerus 60.6035 1.06096 93.1956
lradius 10.9927
lwrist -63.5668
lhand -16.2435 1.84697
lfingers 7.12502
lthumb 9.96528 31.5911
rfemur -16.0199 -15.8097 3.47548
rtibia 67.4605
rfoot -28.6322 10.0956
rtoes -12.8954
lfemur -22.2394 -2.06018 -20.1838
ltibia 64.9327
lfoot -29.3645 -7.17887
ltoes -1.51415
34
root -2.95152 15.2409 -2.92753 307.12 -81.6201 -321.775
lowerback 31.2707 -2.62367 -2.13633
upperback 1.97993 -4.9583 -3.12712
thorax -14.2424 -2.30204 -0.197458
lowerneck 4.04745 1.96038 -3.29659
upperneck 2.09643 2.43555 0.454331
head -0.071303 1.17731 0.64793
rclavicle -1.82882e-014 -9.74045e-015
rhumerus 62.7548 -6.67702 -110.586
rradius 7.44795
rwrist 78.4309
rhand -16.9879 12.0739
rfingers 7.12502
rthumb 9.24698 -17.7033
lclavicle -1.82882e-014 -9.74045e-015
lhumerus 61.047 0.853623 92.875
lradius 10.9228
lwrist -63.2886
lhand -16.5264 1.76475
lfingers 7.12502
lthumb 9.69234 31.5217
rfemur -17.2581 -16.5333 2.9443
rtibia 70.0036
rfoot -28.295 10.9734
rtoes -12.6111
lfemur -23.2974 -1.51218 -20.0322
ltibia 67.0456
lfoot -29.7265 -7.72345
ltoes -1.55265
35
root -2.93646 15.0866 -2.92483 306.727 -81.6348 -321.63
lowerback 31.8756 -2.62148 -2.08791
upperback 2.06208 -4.97285 -3.14428
thorax -14.4169 -2.31014 -0.211917
lowerneck 4.06139 1.96458 -3.27842
upperneck 1.89174 2.44289 0.440689
head -0.135861 1.18441 0.639585
rclavicle -2.68359e-015 1.59028e-015
rhumerus 63.264 -6.45988 -110.492
rradius 7.30913
rwrist 78.1877
rhand -17.1336 12.1154
rfingers 7.12502
rthumb 9.10639 -17.668
lclavicle -2.68359e-015 1.59028e-015
lhumerus 61.5215 0.700576 92.6736
lradius 10.8074
lwrist -63.1645
lhand -16.7255 1.66384
lfingers 7.12502
lthumb 9.50022 31.4297
rfemur -18.5525 -17.2574 2.41099
rtibia 72.5785
rfoot -27.8487 11.9021
rtoes -12.2843
lfemur -24.4243 -0.964275 -19.851
ltibia 69.2073
lfoot -30.0583 -8.37828
ltoes -1.37084
36
root -2.92178 14.9273 -2.92297 306.444 -81.6485 -321.636
lowerback 32.5103 -2.62507 -2.03163
upperback 2.15844 -4.99271 -3.15775
thorax -14.5843 -2.3216 -0.223766
lowerneck 4.09928 1.97076 -3.23632
upperneck 1.64968 2.45292 0.400484
head -0.215174 1.19352 0.61871
rclavicle 4.94725e-014 1.17283e-014
rhumerus 63.6019 -6.28526 -110.38
rradius 7.3543
rwrist 77.9374
rhand -17.2293 12.229
rfingers 7.12502
rthumb 9.01411 -17.5584
lclavicle 4.94725e-014 1.17283e-014
lhumerus 62.0208 0.551443 92.4721
lradius 10.6772
lwrist -63.049
lhand -16.8528 1.60123
lfingers 7.12502
lthumb 9.37735 31.3726
rfemur -19.8238 -17.9821 1.86311
rtibia 75.1717
rfoot -27.2324 12.8203
rtoes -11.8561
lfemur -25.5381 -0.418503 -19.6416
ltibia 71.4059
lfoot -30.3724 -9.04183
ltoes -1.36543
37
root -2.9074 14.7618 -2.92092 306.131 -81.6574 -321.611
lowerback 33.1383 -2.63211 -1.97563
upperback 2.24605 -5.01626 -3.17047
thorax -14.7552 -2.33442 -0.233316
lowerneck 4.18397 1.98137 -3.24954
upperneck 1.37137 2.46431 0.390798
head -0.314835 1.20319 0.616014
rclavicle -1.36664e-014 -2.88238e-014
rhumerus 63.6921 -6.19636 -110.218
rradius 7.63441
rwrist 77.7412
rhand -17.3172 12.3735
rfingers 7.12502
rthumb 8.9293 -17.4176
lclavicle -1.36664e-014 -2.88238e-014
lhumerus 62.4915 0.405897 92.2205
lradius 10.59
lwrist -62.938
lhand -16.7979 1.58364
lfingers 7.12502
lthumb 9.43035 31.3527
rfemur -21.0959 -18.6998 1.28284
rtibia 77.7702
rfoot -26.5294 13.7866
rtoes -11.3237
lfemur -26.668 0.120339 -19.4228
ltibia 73.6231
lfoot -30.5786 -9.7789
ltoes -1.1563
